<mxfile host="Electron" modified="2024-06-07T01:26:35.023Z" agent="Mozilla/5.0 (X11; Linux x86_64) AppleWebKit/537.36 (KHTML, like Gecko) draw.io/24.4.13 Chrome/124.0.6367.207 Electron/30.0.6 Safari/537.36" etag="H9PhuZxwWZ_YVZkQK8tT" version="24.4.13" type="device" pages="4">
  <diagram name="homepage" id="Ilbk3ZBohsXL93-3jlgG">
    <mxGraphModel dx="1323" dy="1197" grid="1" gridSize="10" guides="1" tooltips="1" connect="1" arrows="1" fold="1" page="1" pageScale="1" pageWidth="1200" pageHeight="1700" math="0" shadow="0">
      <root>
        <mxCell id="0" />
        <mxCell id="1" parent="0" />
        <mxCell id="DaABuhjIQI08879sDNrH-10" value="" style="verticalLabelPosition=bottom;shadow=0;dashed=0;align=center;html=1;verticalAlign=top;strokeWidth=1;shape=mxgraph.mockup.graphics.simpleIcon;strokeColor=#999999;fillColor=#403e41;" vertex="1" parent="1">
          <mxGeometry x="10" y="190" width="1180" height="500" as="geometry" />
        </mxCell>
        <mxCell id="DaABuhjIQI08879sDNrH-11" value="Whte Water Rafting" style="text;html=1;align=center;verticalAlign=middle;whiteSpace=wrap;rounded=0;fontSize=32;" vertex="1" parent="1">
          <mxGeometry x="420" y="240" width="340" height="70" as="geometry" />
        </mxCell>
        <mxCell id="DaABuhjIQI08879sDNrH-12" value="Call To Action" style="strokeWidth=1;shadow=0;dashed=0;align=center;html=1;shape=mxgraph.mockup.buttons.button;strokeColor=#666666;fontColor=#ffffff;mainText=;buttonStyle=round;fontSize=17;fontStyle=1;fillColor=#008cff;whiteSpace=wrap;" vertex="1" parent="1">
          <mxGeometry x="930" y="580" width="150" height="50" as="geometry" />
        </mxCell>
        <mxCell id="DaABuhjIQI08879sDNrH-13" value="" style="verticalLabelPosition=bottom;shadow=0;dashed=0;align=center;html=1;verticalAlign=top;strokeWidth=1;shape=mxgraph.mockup.graphics.simpleIcon;strokeColor=#999999;fillColor=#151C1D;" vertex="1" parent="1">
          <mxGeometry x="82" y="770" width="158" height="150" as="geometry" />
        </mxCell>
        <mxCell id="DaABuhjIQI08879sDNrH-14" value="" style="verticalLabelPosition=bottom;shadow=0;dashed=0;align=center;html=1;verticalAlign=top;strokeWidth=1;shape=mxgraph.mockup.graphics.simpleIcon;strokeColor=#999999;fillColor=#151C1D;" vertex="1" parent="1">
          <mxGeometry x="521" y="770" width="158" height="150" as="geometry" />
        </mxCell>
        <mxCell id="DaABuhjIQI08879sDNrH-15" value="" style="verticalLabelPosition=bottom;shadow=0;dashed=0;align=center;html=1;verticalAlign=top;strokeWidth=1;shape=mxgraph.mockup.graphics.simpleIcon;strokeColor=#999999;fillColor=#151C1D;" vertex="1" parent="1">
          <mxGeometry x="926" y="770" width="158" height="150" as="geometry" />
        </mxCell>
        <mxCell id="DaABuhjIQI08879sDNrH-16" value="Caption" style="text;html=1;align=center;verticalAlign=middle;whiteSpace=wrap;rounded=0;" vertex="1" parent="1">
          <mxGeometry x="82" y="930" width="158" height="30" as="geometry" />
        </mxCell>
        <mxCell id="DaABuhjIQI08879sDNrH-17" value="Caption" style="text;html=1;align=center;verticalAlign=middle;whiteSpace=wrap;rounded=0;" vertex="1" parent="1">
          <mxGeometry x="521" y="930" width="158" height="30" as="geometry" />
        </mxCell>
        <mxCell id="DaABuhjIQI08879sDNrH-18" value="Caption" style="text;html=1;align=center;verticalAlign=middle;whiteSpace=wrap;rounded=0;" vertex="1" parent="1">
          <mxGeometry x="926" y="930" width="158" height="30" as="geometry" />
        </mxCell>
        <mxCell id="DaABuhjIQI08879sDNrH-19" value="" style="verticalLabelPosition=bottom;shadow=0;dashed=0;align=center;html=1;verticalAlign=top;strokeWidth=1;shape=mxgraph.mockup.graphics.simpleIcon;strokeColor=#999999;fillColor=#203056;" vertex="1" parent="1">
          <mxGeometry x="70" y="1080" width="590" height="390" as="geometry" />
        </mxCell>
        <mxCell id="DaABuhjIQI08879sDNrH-20" value="" style="rounded=0;whiteSpace=wrap;html=1;fillColor=#808080;" vertex="1" parent="1">
          <mxGeometry x="570" y="1140" width="520" height="270" as="geometry" />
        </mxCell>
        <mxCell id="DaABuhjIQI08879sDNrH-21" value="&lt;h1 style=&quot;margin-top: 0px;&quot;&gt;&lt;font color=&quot;#ffffff&quot;&gt;Heading&lt;/font&gt;&lt;/h1&gt;&lt;p&gt;&lt;font color=&quot;#ffffff&quot;&gt;&lt;span style=&quot;font-family: &amp;quot;Mercury SSm A&amp;quot;, &amp;quot;Mercury SSm B&amp;quot;, Georgia, Times, &amp;quot;Times New Roman&amp;quot;, &amp;quot;Microsoft YaHei New&amp;quot;, &amp;quot;Microsoft Yahei&amp;quot;, 微软雅黑, 宋体, SimSun, STXihei, 华文细黑, serif; font-size: 16px;&quot;&gt;Lorem ipsum dolor sit amet, consectetur adipiscing elit, sed do eiusmod tempor incididunt ut labore et dolore magna aliqua. Ut enim ad minim veniam, quis nostrud exercitation ullamco laboris nisi ut aliquip ex ea commodo consequat. Duis aute irure dolor in reprehenderit in voluptate velit esse cillum dolore eu fugiat nulla pariatur. &lt;/span&gt;&lt;span style=&quot;font-family: &amp;quot;Mercury SSm A&amp;quot;, &amp;quot;Mercury SSm B&amp;quot;, Georgia, Times, &amp;quot;Times New Roman&amp;quot;, &amp;quot;Microsoft YaHei New&amp;quot;, &amp;quot;Microsoft Yahei&amp;quot;, 微软雅黑, 宋体, SimSun, STXihei, 华文细黑, serif; font-size: 16px; background-color: rgb(85, 98, 113);&quot;&gt;.&lt;/span&gt;&lt;/font&gt;&lt;br&gt;&lt;/p&gt;" style="text;html=1;whiteSpace=wrap;overflow=hidden;rounded=0;" vertex="1" parent="1">
          <mxGeometry x="600" y="1158" width="460" height="170" as="geometry" />
        </mxCell>
        <mxCell id="DaABuhjIQI08879sDNrH-22" value="Contact Us" style="strokeWidth=1;shadow=0;dashed=0;align=center;html=1;shape=mxgraph.mockup.buttons.button;strokeColor=#666666;fontColor=#ffffff;mainText=;buttonStyle=round;fontSize=17;fontStyle=1;fillColor=#008cff;whiteSpace=wrap;" vertex="1" parent="1">
          <mxGeometry x="610" y="1350" width="140" height="40" as="geometry" />
        </mxCell>
        <mxCell id="ieXsaCsFeGtSUpfdBKed-1" value="" style="group" vertex="1" connectable="0" parent="1">
          <mxGeometry x="10" y="20" width="1180" height="170" as="geometry" />
        </mxCell>
        <mxCell id="DaABuhjIQI08879sDNrH-1" value="" style="rounded=0;whiteSpace=wrap;html=1;fontColor=#E6D0DE;fillColor=#E6D0DE;" vertex="1" parent="ieXsaCsFeGtSUpfdBKed-1">
          <mxGeometry width="1180" height="170" as="geometry" />
        </mxCell>
        <mxCell id="DaABuhjIQI08879sDNrH-2" value="" style="verticalLabelPosition=bottom;shadow=0;dashed=0;align=center;html=1;verticalAlign=top;strokeWidth=1;shape=mxgraph.mockup.graphics.simpleIcon;strokeColor=#999999;" vertex="1" parent="ieXsaCsFeGtSUpfdBKed-1">
          <mxGeometry x="22" y="10" width="150" height="150" as="geometry" />
        </mxCell>
        <mxCell id="DaABuhjIQI08879sDNrH-3" value="" style="strokeWidth=1;shadow=0;dashed=0;align=center;html=1;shape=mxgraph.mockup.forms.rrect;rSize=0;strokeColor=none;fillColor=#000066;" vertex="1" parent="ieXsaCsFeGtSUpfdBKed-1">
          <mxGeometry x="310" y="60" width="658" height="40" as="geometry" />
        </mxCell>
        <mxCell id="DaABuhjIQI08879sDNrH-4" value="Home" style="strokeColor=inherit;fillColor=inherit;gradientColor=inherit;strokeWidth=1;shadow=0;dashed=0;align=center;html=1;shape=mxgraph.mockup.forms.rrect;rSize=0;fontSize=17;fontColor=#FFFFFF;whiteSpace=wrap;" vertex="1" parent="DaABuhjIQI08879sDNrH-3">
          <mxGeometry width="109.66666666666667" height="40" as="geometry" />
        </mxCell>
        <mxCell id="DaABuhjIQI08879sDNrH-5" value="About Us" style="strokeColor=inherit;fillColor=inherit;gradientColor=inherit;strokeWidth=1;shadow=0;dashed=0;align=center;html=1;shape=mxgraph.mockup.forms.rrect;rSize=0;fontSize=17;fontColor=#FFFFFF;whiteSpace=wrap;" vertex="1" parent="DaABuhjIQI08879sDNrH-3">
          <mxGeometry x="174" width="109.66666666666667" height="40" as="geometry" />
        </mxCell>
        <mxCell id="DaABuhjIQI08879sDNrH-6" value="Trips" style="strokeWidth=1;shadow=0;dashed=0;align=center;html=1;shape=mxgraph.mockup.forms.rrect;rSize=0;fontSize=17;whiteSpace=wrap;fillColor=#f5f5f5;strokeColor=#666666;fontColor=#01011D;" vertex="1" parent="DaABuhjIQI08879sDNrH-3">
          <mxGeometry x="349" width="109.66666666666667" height="40" as="geometry" />
        </mxCell>
        <mxCell id="DaABuhjIQI08879sDNrH-7" value="Contact Us" style="strokeColor=inherit;fillColor=inherit;gradientColor=inherit;strokeWidth=1;shadow=0;dashed=0;align=center;html=1;shape=mxgraph.mockup.forms.rrect;rSize=0;fontSize=17;fontColor=#FFFFFF;whiteSpace=wrap;" vertex="1" parent="DaABuhjIQI08879sDNrH-3">
          <mxGeometry x="498.12449799196787" width="159.87550200803213" height="40" as="geometry" />
        </mxCell>
        <mxCell id="0g4jnQGNcWDFGs7vzYhW-1" value="" style="group" vertex="1" connectable="0" parent="1">
          <mxGeometry x="10" y="1630" width="1180" height="60" as="geometry" />
        </mxCell>
        <mxCell id="DaABuhjIQI08879sDNrH-23" value="" style="rounded=0;whiteSpace=wrap;html=1;fillColor=#3e3e3e;" vertex="1" parent="0g4jnQGNcWDFGs7vzYhW-1">
          <mxGeometry width="1180" height="60" as="geometry" />
        </mxCell>
        <mxCell id="DaABuhjIQI08879sDNrH-24" value="Footer content" style="text;html=1;align=center;verticalAlign=middle;whiteSpace=wrap;rounded=0;fontColor=#FFFFFF;" vertex="1" parent="0g4jnQGNcWDFGs7vzYhW-1">
          <mxGeometry x="40.689655172413794" y="15" width="427.24137931034477" height="30" as="geometry" />
        </mxCell>
        <mxCell id="DaABuhjIQI08879sDNrH-25" value="" style="verticalLabelPosition=bottom;shadow=0;dashed=0;align=center;html=1;verticalAlign=top;strokeWidth=1;shape=mxgraph.mockup.graphics.simpleIcon;strokeColor=#999999;fillColor=#FFFFCC;" vertex="1" parent="0g4jnQGNcWDFGs7vzYhW-1">
          <mxGeometry x="1092.5172413793102" y="5" width="50.86206896551724" height="50" as="geometry" />
        </mxCell>
        <mxCell id="DaABuhjIQI08879sDNrH-26" value="" style="verticalLabelPosition=bottom;shadow=0;dashed=0;align=center;html=1;verticalAlign=top;strokeWidth=1;shape=mxgraph.mockup.graphics.simpleIcon;strokeColor=#999999;fillColor=#FFFFCC;" vertex="1" parent="0g4jnQGNcWDFGs7vzYhW-1">
          <mxGeometry x="1007.0689655172413" y="5" width="50.86206896551724" height="50" as="geometry" />
        </mxCell>
        <mxCell id="DaABuhjIQI08879sDNrH-27" value="" style="verticalLabelPosition=bottom;shadow=0;dashed=0;align=center;html=1;verticalAlign=top;strokeWidth=1;shape=mxgraph.mockup.graphics.simpleIcon;strokeColor=#999999;fillColor=#FFFFCC;" vertex="1" parent="0g4jnQGNcWDFGs7vzYhW-1">
          <mxGeometry x="915.5172413793102" y="5" width="50.86206896551724" height="50" as="geometry" />
        </mxCell>
        <mxCell id="DaABuhjIQI08879sDNrH-28" value="Wireframe Link" style="text;html=1;align=center;verticalAlign=middle;whiteSpace=wrap;rounded=0;fontColor=#FFFFFF;" vertex="1" parent="0g4jnQGNcWDFGs7vzYhW-1">
          <mxGeometry x="579.8275862068965" y="15" width="152.58620689655172" height="30" as="geometry" />
        </mxCell>
      </root>
    </mxGraphModel>
  </diagram>
  <diagram id="1GBkfy8ZL4EAuqAFKOK3" name="trips">
    <mxGraphModel dx="730" dy="668" grid="1" gridSize="10" guides="1" tooltips="1" connect="1" arrows="1" fold="1" page="1" pageScale="1" pageWidth="1200" pageHeight="2550" math="0" shadow="0">
      <root>
        <mxCell id="0" />
        <mxCell id="1" parent="0" />
        <mxCell id="toaOjvvH8Xu7aQDP9Xph-1" value="" style="group" vertex="1" connectable="0" parent="1">
          <mxGeometry y="2460" width="1200" height="60" as="geometry" />
        </mxCell>
        <mxCell id="toaOjvvH8Xu7aQDP9Xph-2" value="" style="rounded=0;whiteSpace=wrap;html=1;fillColor=#3e3e3e;" vertex="1" parent="toaOjvvH8Xu7aQDP9Xph-1">
          <mxGeometry width="1200" height="60" as="geometry" />
        </mxCell>
        <mxCell id="toaOjvvH8Xu7aQDP9Xph-3" value="Footer content" style="text;html=1;align=center;verticalAlign=middle;whiteSpace=wrap;rounded=0;fontColor=#FFFFFF;" vertex="1" parent="toaOjvvH8Xu7aQDP9Xph-1">
          <mxGeometry x="41.37931034482759" y="15" width="434.48275862068954" height="30" as="geometry" />
        </mxCell>
        <mxCell id="toaOjvvH8Xu7aQDP9Xph-4" value="" style="verticalLabelPosition=bottom;shadow=0;dashed=0;align=center;html=1;verticalAlign=top;strokeWidth=1;shape=mxgraph.mockup.graphics.simpleIcon;strokeColor=#999999;fillColor=#FFFFCC;" vertex="1" parent="toaOjvvH8Xu7aQDP9Xph-1">
          <mxGeometry x="1111.0344827586205" y="5" width="51.72413793103448" height="50" as="geometry" />
        </mxCell>
        <mxCell id="toaOjvvH8Xu7aQDP9Xph-5" value="" style="verticalLabelPosition=bottom;shadow=0;dashed=0;align=center;html=1;verticalAlign=top;strokeWidth=1;shape=mxgraph.mockup.graphics.simpleIcon;strokeColor=#999999;fillColor=#FFFFCC;" vertex="1" parent="toaOjvvH8Xu7aQDP9Xph-1">
          <mxGeometry x="1024.1379310344826" y="5" width="51.72413793103448" height="50" as="geometry" />
        </mxCell>
        <mxCell id="toaOjvvH8Xu7aQDP9Xph-6" value="" style="verticalLabelPosition=bottom;shadow=0;dashed=0;align=center;html=1;verticalAlign=top;strokeWidth=1;shape=mxgraph.mockup.graphics.simpleIcon;strokeColor=#999999;fillColor=#FFFFCC;" vertex="1" parent="toaOjvvH8Xu7aQDP9Xph-1">
          <mxGeometry x="931.0344827586205" y="5" width="51.72413793103448" height="50" as="geometry" />
        </mxCell>
        <mxCell id="toaOjvvH8Xu7aQDP9Xph-7" value="Wireframe Link" style="text;html=1;align=center;verticalAlign=middle;whiteSpace=wrap;rounded=0;fontColor=#FFFFFF;" vertex="1" parent="toaOjvvH8Xu7aQDP9Xph-1">
          <mxGeometry x="589.655172413793" y="15" width="155.17241379310343" height="30" as="geometry" />
        </mxCell>
        <mxCell id="6g1HS2nHY0zn9TrIZg31-1" value="" style="verticalLabelPosition=bottom;shadow=0;dashed=0;align=center;html=1;verticalAlign=top;strokeWidth=1;shape=mxgraph.mockup.graphics.simpleIcon;strokeColor=#6c8ebf;fillColor=#000099;gradientColor=none;" vertex="1" parent="1">
          <mxGeometry x="10" y="190" width="1180" height="560" as="geometry" />
        </mxCell>
        <mxCell id="6g1HS2nHY0zn9TrIZg31-2" value="Whitewater Adventures Trips" style="text;html=1;align=center;verticalAlign=middle;whiteSpace=wrap;rounded=0;fontSize=36;" vertex="1" parent="1">
          <mxGeometry x="360" y="230" width="480" height="50" as="geometry" />
        </mxCell>
        <mxCell id="6g1HS2nHY0zn9TrIZg31-3" value="Contact Us" style="strokeWidth=1;shadow=0;dashed=0;align=center;html=1;shape=mxgraph.mockup.buttons.button;strokeColor=#666666;fontColor=#ffffff;mainText=;buttonStyle=round;fontSize=17;fontStyle=1;fillColor=#008cff;whiteSpace=wrap;" vertex="1" parent="1">
          <mxGeometry x="550" y="340" width="150" height="50" as="geometry" />
        </mxCell>
        <mxCell id="6g1HS2nHY0zn9TrIZg31-15" value="" style="shape=table;startSize=0;container=1;collapsible=0;childLayout=tableLayout;fillColor=#3E3E3E;" vertex="1" parent="1">
          <mxGeometry x="320" y="790" width="590" height="280" as="geometry" />
        </mxCell>
        <mxCell id="6g1HS2nHY0zn9TrIZg31-16" value="" style="shape=tableRow;horizontal=0;startSize=0;swimlaneHead=0;swimlaneBody=0;strokeColor=inherit;top=0;left=0;bottom=0;right=0;collapsible=0;dropTarget=0;fillColor=none;points=[[0,0.5],[1,0.5]];portConstraint=eastwest;" vertex="1" parent="6g1HS2nHY0zn9TrIZg31-15">
          <mxGeometry width="590" height="40" as="geometry" />
        </mxCell>
        <mxCell id="6g1HS2nHY0zn9TrIZg31-17" value="Trip Length" style="shape=partialRectangle;html=1;whiteSpace=wrap;connectable=0;strokeColor=inherit;overflow=hidden;fillColor=none;top=0;left=0;bottom=0;right=0;pointerEvents=1;" vertex="1" parent="6g1HS2nHY0zn9TrIZg31-16">
          <mxGeometry width="90" height="40" as="geometry">
            <mxRectangle width="90" height="40" as="alternateBounds" />
          </mxGeometry>
        </mxCell>
        <mxCell id="6g1HS2nHY0zn9TrIZg31-18" value="Cost" style="shape=partialRectangle;html=1;whiteSpace=wrap;connectable=0;strokeColor=inherit;overflow=hidden;fillColor=none;top=0;left=0;bottom=0;right=0;pointerEvents=1;" vertex="1" parent="6g1HS2nHY0zn9TrIZg31-16">
          <mxGeometry x="90" width="80" height="40" as="geometry">
            <mxRectangle width="80" height="40" as="alternateBounds" />
          </mxGeometry>
        </mxCell>
        <mxCell id="6g1HS2nHY0zn9TrIZg31-19" value="Details" style="shape=partialRectangle;html=1;whiteSpace=wrap;connectable=0;strokeColor=inherit;overflow=hidden;fillColor=none;top=0;left=0;bottom=0;right=0;pointerEvents=1;" vertex="1" parent="6g1HS2nHY0zn9TrIZg31-16">
          <mxGeometry x="170" width="420" height="40" as="geometry">
            <mxRectangle width="420" height="40" as="alternateBounds" />
          </mxGeometry>
        </mxCell>
        <mxCell id="6g1HS2nHY0zn9TrIZg31-20" value="" style="shape=tableRow;horizontal=0;startSize=0;swimlaneHead=0;swimlaneBody=0;strokeColor=inherit;top=0;left=0;bottom=0;right=0;collapsible=0;dropTarget=0;fillColor=none;points=[[0,0.5],[1,0.5]];portConstraint=eastwest;" vertex="1" parent="6g1HS2nHY0zn9TrIZg31-15">
          <mxGeometry y="40" width="590" height="40" as="geometry" />
        </mxCell>
        <mxCell id="6g1HS2nHY0zn9TrIZg31-21" value="" style="shape=partialRectangle;html=1;whiteSpace=wrap;connectable=0;strokeColor=inherit;overflow=hidden;fillColor=none;top=0;left=0;bottom=0;right=0;pointerEvents=1;" vertex="1" parent="6g1HS2nHY0zn9TrIZg31-20">
          <mxGeometry width="90" height="40" as="geometry">
            <mxRectangle width="90" height="40" as="alternateBounds" />
          </mxGeometry>
        </mxCell>
        <mxCell id="6g1HS2nHY0zn9TrIZg31-22" value="" style="shape=partialRectangle;html=1;whiteSpace=wrap;connectable=0;strokeColor=inherit;overflow=hidden;fillColor=none;top=0;left=0;bottom=0;right=0;pointerEvents=1;" vertex="1" parent="6g1HS2nHY0zn9TrIZg31-20">
          <mxGeometry x="90" width="80" height="40" as="geometry">
            <mxRectangle width="80" height="40" as="alternateBounds" />
          </mxGeometry>
        </mxCell>
        <mxCell id="6g1HS2nHY0zn9TrIZg31-23" value="" style="shape=partialRectangle;html=1;whiteSpace=wrap;connectable=0;strokeColor=inherit;overflow=hidden;fillColor=none;top=0;left=0;bottom=0;right=0;pointerEvents=1;" vertex="1" parent="6g1HS2nHY0zn9TrIZg31-20">
          <mxGeometry x="170" width="420" height="40" as="geometry">
            <mxRectangle width="420" height="40" as="alternateBounds" />
          </mxGeometry>
        </mxCell>
        <mxCell id="6g1HS2nHY0zn9TrIZg31-24" value="" style="shape=tableRow;horizontal=0;startSize=0;swimlaneHead=0;swimlaneBody=0;strokeColor=inherit;top=0;left=0;bottom=0;right=0;collapsible=0;dropTarget=0;fillColor=none;points=[[0,0.5],[1,0.5]];portConstraint=eastwest;" vertex="1" parent="6g1HS2nHY0zn9TrIZg31-15">
          <mxGeometry y="80" width="590" height="40" as="geometry" />
        </mxCell>
        <mxCell id="6g1HS2nHY0zn9TrIZg31-25" value="" style="shape=partialRectangle;html=1;whiteSpace=wrap;connectable=0;strokeColor=inherit;overflow=hidden;fillColor=none;top=0;left=0;bottom=0;right=0;pointerEvents=1;" vertex="1" parent="6g1HS2nHY0zn9TrIZg31-24">
          <mxGeometry width="90" height="40" as="geometry">
            <mxRectangle width="90" height="40" as="alternateBounds" />
          </mxGeometry>
        </mxCell>
        <mxCell id="6g1HS2nHY0zn9TrIZg31-26" value="" style="shape=partialRectangle;html=1;whiteSpace=wrap;connectable=0;strokeColor=inherit;overflow=hidden;fillColor=none;top=0;left=0;bottom=0;right=0;pointerEvents=1;" vertex="1" parent="6g1HS2nHY0zn9TrIZg31-24">
          <mxGeometry x="90" width="80" height="40" as="geometry">
            <mxRectangle width="80" height="40" as="alternateBounds" />
          </mxGeometry>
        </mxCell>
        <mxCell id="6g1HS2nHY0zn9TrIZg31-27" value="" style="shape=partialRectangle;html=1;whiteSpace=wrap;connectable=0;strokeColor=inherit;overflow=hidden;fillColor=none;top=0;left=0;bottom=0;right=0;pointerEvents=1;" vertex="1" parent="6g1HS2nHY0zn9TrIZg31-24">
          <mxGeometry x="170" width="420" height="40" as="geometry">
            <mxRectangle width="420" height="40" as="alternateBounds" />
          </mxGeometry>
        </mxCell>
        <mxCell id="6g1HS2nHY0zn9TrIZg31-28" value="" style="shape=tableRow;horizontal=0;startSize=0;swimlaneHead=0;swimlaneBody=0;strokeColor=inherit;top=0;left=0;bottom=0;right=0;collapsible=0;dropTarget=0;fillColor=none;points=[[0,0.5],[1,0.5]];portConstraint=eastwest;" vertex="1" parent="6g1HS2nHY0zn9TrIZg31-15">
          <mxGeometry y="120" width="590" height="40" as="geometry" />
        </mxCell>
        <mxCell id="6g1HS2nHY0zn9TrIZg31-29" value="" style="shape=partialRectangle;html=1;whiteSpace=wrap;connectable=0;strokeColor=inherit;overflow=hidden;fillColor=none;top=0;left=0;bottom=0;right=0;pointerEvents=1;" vertex="1" parent="6g1HS2nHY0zn9TrIZg31-28">
          <mxGeometry width="90" height="40" as="geometry">
            <mxRectangle width="90" height="40" as="alternateBounds" />
          </mxGeometry>
        </mxCell>
        <mxCell id="6g1HS2nHY0zn9TrIZg31-30" value="" style="shape=partialRectangle;html=1;whiteSpace=wrap;connectable=0;strokeColor=inherit;overflow=hidden;fillColor=none;top=0;left=0;bottom=0;right=0;pointerEvents=1;" vertex="1" parent="6g1HS2nHY0zn9TrIZg31-28">
          <mxGeometry x="90" width="80" height="40" as="geometry">
            <mxRectangle width="80" height="40" as="alternateBounds" />
          </mxGeometry>
        </mxCell>
        <mxCell id="6g1HS2nHY0zn9TrIZg31-31" value="" style="shape=partialRectangle;html=1;whiteSpace=wrap;connectable=0;strokeColor=inherit;overflow=hidden;fillColor=none;top=0;left=0;bottom=0;right=0;pointerEvents=1;" vertex="1" parent="6g1HS2nHY0zn9TrIZg31-28">
          <mxGeometry x="170" width="420" height="40" as="geometry">
            <mxRectangle width="420" height="40" as="alternateBounds" />
          </mxGeometry>
        </mxCell>
        <mxCell id="6g1HS2nHY0zn9TrIZg31-32" value="" style="shape=tableRow;horizontal=0;startSize=0;swimlaneHead=0;swimlaneBody=0;strokeColor=inherit;top=0;left=0;bottom=0;right=0;collapsible=0;dropTarget=0;fillColor=none;points=[[0,0.5],[1,0.5]];portConstraint=eastwest;" vertex="1" parent="6g1HS2nHY0zn9TrIZg31-15">
          <mxGeometry y="160" width="590" height="40" as="geometry" />
        </mxCell>
        <mxCell id="6g1HS2nHY0zn9TrIZg31-33" value="" style="shape=partialRectangle;html=1;whiteSpace=wrap;connectable=0;strokeColor=inherit;overflow=hidden;fillColor=none;top=0;left=0;bottom=0;right=0;pointerEvents=1;" vertex="1" parent="6g1HS2nHY0zn9TrIZg31-32">
          <mxGeometry width="90" height="40" as="geometry">
            <mxRectangle width="90" height="40" as="alternateBounds" />
          </mxGeometry>
        </mxCell>
        <mxCell id="6g1HS2nHY0zn9TrIZg31-34" value="" style="shape=partialRectangle;html=1;whiteSpace=wrap;connectable=0;strokeColor=inherit;overflow=hidden;fillColor=none;top=0;left=0;bottom=0;right=0;pointerEvents=1;" vertex="1" parent="6g1HS2nHY0zn9TrIZg31-32">
          <mxGeometry x="90" width="80" height="40" as="geometry">
            <mxRectangle width="80" height="40" as="alternateBounds" />
          </mxGeometry>
        </mxCell>
        <mxCell id="6g1HS2nHY0zn9TrIZg31-35" value="" style="shape=partialRectangle;html=1;whiteSpace=wrap;connectable=0;strokeColor=inherit;overflow=hidden;fillColor=none;top=0;left=0;bottom=0;right=0;pointerEvents=1;" vertex="1" parent="6g1HS2nHY0zn9TrIZg31-32">
          <mxGeometry x="170" width="420" height="40" as="geometry">
            <mxRectangle width="420" height="40" as="alternateBounds" />
          </mxGeometry>
        </mxCell>
        <mxCell id="6g1HS2nHY0zn9TrIZg31-36" value="" style="shape=tableRow;horizontal=0;startSize=0;swimlaneHead=0;swimlaneBody=0;strokeColor=inherit;top=0;left=0;bottom=0;right=0;collapsible=0;dropTarget=0;fillColor=none;points=[[0,0.5],[1,0.5]];portConstraint=eastwest;" vertex="1" parent="6g1HS2nHY0zn9TrIZg31-15">
          <mxGeometry y="200" width="590" height="40" as="geometry" />
        </mxCell>
        <mxCell id="6g1HS2nHY0zn9TrIZg31-37" value="" style="shape=partialRectangle;html=1;whiteSpace=wrap;connectable=0;strokeColor=inherit;overflow=hidden;fillColor=none;top=0;left=0;bottom=0;right=0;pointerEvents=1;" vertex="1" parent="6g1HS2nHY0zn9TrIZg31-36">
          <mxGeometry width="90" height="40" as="geometry">
            <mxRectangle width="90" height="40" as="alternateBounds" />
          </mxGeometry>
        </mxCell>
        <mxCell id="6g1HS2nHY0zn9TrIZg31-38" value="" style="shape=partialRectangle;html=1;whiteSpace=wrap;connectable=0;strokeColor=inherit;overflow=hidden;fillColor=none;top=0;left=0;bottom=0;right=0;pointerEvents=1;" vertex="1" parent="6g1HS2nHY0zn9TrIZg31-36">
          <mxGeometry x="90" width="80" height="40" as="geometry">
            <mxRectangle width="80" height="40" as="alternateBounds" />
          </mxGeometry>
        </mxCell>
        <mxCell id="6g1HS2nHY0zn9TrIZg31-39" value="" style="shape=partialRectangle;html=1;whiteSpace=wrap;connectable=0;strokeColor=inherit;overflow=hidden;fillColor=none;top=0;left=0;bottom=0;right=0;pointerEvents=1;" vertex="1" parent="6g1HS2nHY0zn9TrIZg31-36">
          <mxGeometry x="170" width="420" height="40" as="geometry">
            <mxRectangle width="420" height="40" as="alternateBounds" />
          </mxGeometry>
        </mxCell>
        <mxCell id="6g1HS2nHY0zn9TrIZg31-40" value="" style="shape=tableRow;horizontal=0;startSize=0;swimlaneHead=0;swimlaneBody=0;strokeColor=inherit;top=0;left=0;bottom=0;right=0;collapsible=0;dropTarget=0;fillColor=none;points=[[0,0.5],[1,0.5]];portConstraint=eastwest;" vertex="1" parent="6g1HS2nHY0zn9TrIZg31-15">
          <mxGeometry y="240" width="590" height="40" as="geometry" />
        </mxCell>
        <mxCell id="6g1HS2nHY0zn9TrIZg31-41" value="" style="shape=partialRectangle;html=1;whiteSpace=wrap;connectable=0;strokeColor=inherit;overflow=hidden;fillColor=none;top=0;left=0;bottom=0;right=0;pointerEvents=1;" vertex="1" parent="6g1HS2nHY0zn9TrIZg31-40">
          <mxGeometry width="90" height="40" as="geometry">
            <mxRectangle width="90" height="40" as="alternateBounds" />
          </mxGeometry>
        </mxCell>
        <mxCell id="6g1HS2nHY0zn9TrIZg31-42" value="" style="shape=partialRectangle;html=1;whiteSpace=wrap;connectable=0;strokeColor=inherit;overflow=hidden;fillColor=none;top=0;left=0;bottom=0;right=0;pointerEvents=1;" vertex="1" parent="6g1HS2nHY0zn9TrIZg31-40">
          <mxGeometry x="90" width="80" height="40" as="geometry">
            <mxRectangle width="80" height="40" as="alternateBounds" />
          </mxGeometry>
        </mxCell>
        <mxCell id="6g1HS2nHY0zn9TrIZg31-43" value="" style="shape=partialRectangle;html=1;whiteSpace=wrap;connectable=0;strokeColor=inherit;overflow=hidden;fillColor=none;top=0;left=0;bottom=0;right=0;pointerEvents=1;" vertex="1" parent="6g1HS2nHY0zn9TrIZg31-40">
          <mxGeometry x="170" width="420" height="40" as="geometry">
            <mxRectangle width="420" height="40" as="alternateBounds" />
          </mxGeometry>
        </mxCell>
        <mxCell id="6g1HS2nHY0zn9TrIZg31-62" value="" style="group" vertex="1" connectable="0" parent="1">
          <mxGeometry x="330" y="835" width="560" height="30" as="geometry" />
        </mxCell>
        <mxCell id="6g1HS2nHY0zn9TrIZg31-59" value="Text" style="text;html=1;align=center;verticalAlign=middle;whiteSpace=wrap;rounded=0;" vertex="1" parent="6g1HS2nHY0zn9TrIZg31-62">
          <mxGeometry width="60" height="30" as="geometry" />
        </mxCell>
        <mxCell id="6g1HS2nHY0zn9TrIZg31-60" value="Price" style="text;html=1;align=center;verticalAlign=middle;whiteSpace=wrap;rounded=0;" vertex="1" parent="6g1HS2nHY0zn9TrIZg31-62">
          <mxGeometry x="90" width="60" height="30" as="geometry" />
        </mxCell>
        <mxCell id="6g1HS2nHY0zn9TrIZg31-61" value="Basic Description" style="text;html=1;align=center;verticalAlign=middle;whiteSpace=wrap;rounded=0;" vertex="1" parent="6g1HS2nHY0zn9TrIZg31-62">
          <mxGeometry x="180" width="380" height="30" as="geometry" />
        </mxCell>
        <mxCell id="6g1HS2nHY0zn9TrIZg31-63" value="" style="group" vertex="1" connectable="0" parent="1">
          <mxGeometry x="320" y="1035" width="560" height="30" as="geometry" />
        </mxCell>
        <mxCell id="6g1HS2nHY0zn9TrIZg31-64" value="Text" style="text;html=1;align=center;verticalAlign=middle;whiteSpace=wrap;rounded=0;" vertex="1" parent="6g1HS2nHY0zn9TrIZg31-63">
          <mxGeometry width="60" height="30" as="geometry" />
        </mxCell>
        <mxCell id="6g1HS2nHY0zn9TrIZg31-65" value="Price" style="text;html=1;align=center;verticalAlign=middle;whiteSpace=wrap;rounded=0;" vertex="1" parent="6g1HS2nHY0zn9TrIZg31-63">
          <mxGeometry x="90" width="60" height="30" as="geometry" />
        </mxCell>
        <mxCell id="6g1HS2nHY0zn9TrIZg31-66" value="Basic Description" style="text;html=1;align=center;verticalAlign=middle;whiteSpace=wrap;rounded=0;" vertex="1" parent="6g1HS2nHY0zn9TrIZg31-63">
          <mxGeometry x="180" width="380" height="30" as="geometry" />
        </mxCell>
        <mxCell id="6g1HS2nHY0zn9TrIZg31-67" value="" style="group" vertex="1" connectable="0" parent="1">
          <mxGeometry x="320" y="995" width="560" height="30" as="geometry" />
        </mxCell>
        <mxCell id="6g1HS2nHY0zn9TrIZg31-68" value="Text" style="text;html=1;align=center;verticalAlign=middle;whiteSpace=wrap;rounded=0;" vertex="1" parent="6g1HS2nHY0zn9TrIZg31-67">
          <mxGeometry width="60" height="30" as="geometry" />
        </mxCell>
        <mxCell id="6g1HS2nHY0zn9TrIZg31-69" value="Price" style="text;html=1;align=center;verticalAlign=middle;whiteSpace=wrap;rounded=0;" vertex="1" parent="6g1HS2nHY0zn9TrIZg31-67">
          <mxGeometry x="90" width="60" height="30" as="geometry" />
        </mxCell>
        <mxCell id="6g1HS2nHY0zn9TrIZg31-70" value="Basic Description" style="text;html=1;align=center;verticalAlign=middle;whiteSpace=wrap;rounded=0;" vertex="1" parent="6g1HS2nHY0zn9TrIZg31-67">
          <mxGeometry x="180" width="380" height="30" as="geometry" />
        </mxCell>
        <mxCell id="6g1HS2nHY0zn9TrIZg31-71" value="" style="group" vertex="1" connectable="0" parent="1">
          <mxGeometry x="323" y="957" width="560" height="30" as="geometry" />
        </mxCell>
        <mxCell id="6g1HS2nHY0zn9TrIZg31-72" value="Text" style="text;html=1;align=center;verticalAlign=middle;whiteSpace=wrap;rounded=0;" vertex="1" parent="6g1HS2nHY0zn9TrIZg31-71">
          <mxGeometry width="60" height="30" as="geometry" />
        </mxCell>
        <mxCell id="6g1HS2nHY0zn9TrIZg31-73" value="Price" style="text;html=1;align=center;verticalAlign=middle;whiteSpace=wrap;rounded=0;" vertex="1" parent="6g1HS2nHY0zn9TrIZg31-71">
          <mxGeometry x="90" width="60" height="30" as="geometry" />
        </mxCell>
        <mxCell id="6g1HS2nHY0zn9TrIZg31-74" value="Basic Description" style="text;html=1;align=center;verticalAlign=middle;whiteSpace=wrap;rounded=0;" vertex="1" parent="6g1HS2nHY0zn9TrIZg31-71">
          <mxGeometry x="180" width="380" height="30" as="geometry" />
        </mxCell>
        <mxCell id="6g1HS2nHY0zn9TrIZg31-75" value="" style="group" vertex="1" connectable="0" parent="1">
          <mxGeometry x="370" y="875" width="560" height="30" as="geometry" />
        </mxCell>
        <mxCell id="6g1HS2nHY0zn9TrIZg31-76" value="Text" style="text;html=1;align=center;verticalAlign=middle;whiteSpace=wrap;rounded=0;" vertex="1" parent="6g1HS2nHY0zn9TrIZg31-75">
          <mxGeometry width="60" height="30" as="geometry" />
        </mxCell>
        <mxCell id="6g1HS2nHY0zn9TrIZg31-77" value="Price" style="text;html=1;align=center;verticalAlign=middle;whiteSpace=wrap;rounded=0;" vertex="1" parent="6g1HS2nHY0zn9TrIZg31-75">
          <mxGeometry x="90" width="60" height="30" as="geometry" />
        </mxCell>
        <mxCell id="6g1HS2nHY0zn9TrIZg31-78" value="Basic Description" style="text;html=1;align=center;verticalAlign=middle;whiteSpace=wrap;rounded=0;" vertex="1" parent="6g1HS2nHY0zn9TrIZg31-75">
          <mxGeometry x="180" width="380" height="30" as="geometry" />
        </mxCell>
        <mxCell id="6g1HS2nHY0zn9TrIZg31-79" value="" style="group" vertex="1" connectable="0" parent="1">
          <mxGeometry x="320" y="917" width="560" height="30" as="geometry" />
        </mxCell>
        <mxCell id="6g1HS2nHY0zn9TrIZg31-80" value="Text" style="text;html=1;align=center;verticalAlign=middle;whiteSpace=wrap;rounded=0;" vertex="1" parent="6g1HS2nHY0zn9TrIZg31-79">
          <mxGeometry width="60" height="30" as="geometry" />
        </mxCell>
        <mxCell id="6g1HS2nHY0zn9TrIZg31-81" value="Price" style="text;html=1;align=center;verticalAlign=middle;whiteSpace=wrap;rounded=0;" vertex="1" parent="6g1HS2nHY0zn9TrIZg31-79">
          <mxGeometry x="90" width="60" height="30" as="geometry" />
        </mxCell>
        <mxCell id="6g1HS2nHY0zn9TrIZg31-82" value="Basic Description" style="text;html=1;align=center;verticalAlign=middle;whiteSpace=wrap;rounded=0;" vertex="1" parent="6g1HS2nHY0zn9TrIZg31-79">
          <mxGeometry x="180" width="380" height="30" as="geometry" />
        </mxCell>
        <mxCell id="6g1HS2nHY0zn9TrIZg31-90" value="" style="group" vertex="1" connectable="0" parent="1">
          <mxGeometry x="646" y="2090" width="520" height="280" as="geometry" />
        </mxCell>
        <mxCell id="6g1HS2nHY0zn9TrIZg31-89" value="" style="rounded=0;whiteSpace=wrap;html=1;fillColor=#161C1D;" vertex="1" parent="6g1HS2nHY0zn9TrIZg31-90">
          <mxGeometry width="520" height="280" as="geometry" />
        </mxCell>
        <mxCell id="6g1HS2nHY0zn9TrIZg31-56" value="" style="whiteSpace=wrap;html=1;aspect=fixed;fillColor=#100F1D;" vertex="1" parent="6g1HS2nHY0zn9TrIZg31-90">
          <mxGeometry x="34" y="20" width="220" height="220" as="geometry" />
        </mxCell>
        <mxCell id="6g1HS2nHY0zn9TrIZg31-58" value="&lt;h1 style=&quot;margin-top: 0px;&quot;&gt;Heading&lt;/h1&gt;&lt;p&gt;Lorem ipsum dolor sit amet, consectetur adipisicing elit, sed do eiusmod tempor incididunt ut labore et dolore magna aliqua.&lt;/p&gt;" style="text;html=1;whiteSpace=wrap;overflow=hidden;rounded=0;" vertex="1" parent="6g1HS2nHY0zn9TrIZg31-90">
          <mxGeometry x="274" y="20" width="240" height="220" as="geometry" />
        </mxCell>
        <mxCell id="6g1HS2nHY0zn9TrIZg31-91" value="" style="group" vertex="1" connectable="0" parent="1">
          <mxGeometry x="40" y="1944" width="520" height="280" as="geometry" />
        </mxCell>
        <mxCell id="6g1HS2nHY0zn9TrIZg31-88" value="" style="rounded=0;whiteSpace=wrap;html=1;fillColor=#161C1D;" vertex="1" parent="6g1HS2nHY0zn9TrIZg31-91">
          <mxGeometry width="520" height="280" as="geometry" />
        </mxCell>
        <mxCell id="6g1HS2nHY0zn9TrIZg31-55" value="" style="whiteSpace=wrap;html=1;aspect=fixed;fillColor=#100F1D;" vertex="1" parent="6g1HS2nHY0zn9TrIZg31-91">
          <mxGeometry x="20" y="20" width="220" height="220" as="geometry" />
        </mxCell>
        <mxCell id="6g1HS2nHY0zn9TrIZg31-57" value="&lt;h1 style=&quot;margin-top: 0px;&quot;&gt;Heading&lt;/h1&gt;&lt;p&gt;Lorem ipsum dolor sit amet, consectetur adipisicing elit, sed do eiusmod tempor incididunt ut labore et dolore magna aliqua.&lt;/p&gt;" style="text;html=1;whiteSpace=wrap;overflow=hidden;rounded=0;" vertex="1" parent="6g1HS2nHY0zn9TrIZg31-91">
          <mxGeometry x="260" y="20" width="240" height="220" as="geometry" />
        </mxCell>
        <mxCell id="6g1HS2nHY0zn9TrIZg31-92" value="" style="group" vertex="1" connectable="0" parent="1">
          <mxGeometry x="40" y="1552" width="520" height="280" as="geometry" />
        </mxCell>
        <mxCell id="6g1HS2nHY0zn9TrIZg31-86" value="" style="rounded=0;whiteSpace=wrap;html=1;fillColor=#161C1D;" vertex="1" parent="6g1HS2nHY0zn9TrIZg31-92">
          <mxGeometry width="520" height="280" as="geometry" />
        </mxCell>
        <mxCell id="6g1HS2nHY0zn9TrIZg31-50" value="" style="whiteSpace=wrap;html=1;aspect=fixed;fillColor=#100F1D;" vertex="1" parent="6g1HS2nHY0zn9TrIZg31-92">
          <mxGeometry x="20" y="30" width="220" height="220" as="geometry" />
        </mxCell>
        <mxCell id="6g1HS2nHY0zn9TrIZg31-52" value="&lt;h1 style=&quot;margin-top: 0px;&quot;&gt;Heading&lt;/h1&gt;&lt;p&gt;Lorem ipsum dolor sit amet, consectetur adipisicing elit, sed do eiusmod tempor incididunt ut labore et dolore magna aliqua.&lt;/p&gt;" style="text;html=1;whiteSpace=wrap;overflow=hidden;rounded=0;" vertex="1" parent="6g1HS2nHY0zn9TrIZg31-92">
          <mxGeometry x="260" y="30" width="240" height="220" as="geometry" />
        </mxCell>
        <mxCell id="6g1HS2nHY0zn9TrIZg31-93" value="" style="group" vertex="1" connectable="0" parent="1">
          <mxGeometry x="646" y="1698" width="520" height="280" as="geometry" />
        </mxCell>
        <mxCell id="6g1HS2nHY0zn9TrIZg31-87" value="" style="rounded=0;whiteSpace=wrap;html=1;fillColor=#161C1D;" vertex="1" parent="6g1HS2nHY0zn9TrIZg31-93">
          <mxGeometry width="520" height="280" as="geometry" />
        </mxCell>
        <mxCell id="6g1HS2nHY0zn9TrIZg31-51" value="" style="whiteSpace=wrap;html=1;aspect=fixed;fillColor=#100F1D;" vertex="1" parent="6g1HS2nHY0zn9TrIZg31-93">
          <mxGeometry x="40" y="30" width="220" height="220" as="geometry" />
        </mxCell>
        <mxCell id="6g1HS2nHY0zn9TrIZg31-53" value="&lt;h1 style=&quot;margin-top: 0px;&quot;&gt;Heading&lt;/h1&gt;&lt;p&gt;Lorem ipsum dolor sit amet, consectetur adipisicing elit, sed do eiusmod tempor incididunt ut labore et dolore magna aliqua.&lt;/p&gt;" style="text;html=1;whiteSpace=wrap;overflow=hidden;rounded=0;" vertex="1" parent="6g1HS2nHY0zn9TrIZg31-93">
          <mxGeometry x="280" y="30" width="240" height="220" as="geometry" />
        </mxCell>
        <mxCell id="6g1HS2nHY0zn9TrIZg31-94" value="" style="group" vertex="1" connectable="0" parent="1">
          <mxGeometry x="646" y="1306" width="520" height="280" as="geometry" />
        </mxCell>
        <mxCell id="6g1HS2nHY0zn9TrIZg31-85" value="" style="rounded=0;whiteSpace=wrap;html=1;fillColor=#161C1D;" vertex="1" parent="6g1HS2nHY0zn9TrIZg31-94">
          <mxGeometry width="520" height="280" as="geometry" />
        </mxCell>
        <mxCell id="6g1HS2nHY0zn9TrIZg31-45" value="" style="whiteSpace=wrap;html=1;aspect=fixed;fillColor=#100F1D;" vertex="1" parent="6g1HS2nHY0zn9TrIZg31-94">
          <mxGeometry x="34" y="29" width="220" height="220" as="geometry" />
        </mxCell>
        <mxCell id="6g1HS2nHY0zn9TrIZg31-47" value="&lt;h1 style=&quot;margin-top: 0px;&quot;&gt;Heading&lt;/h1&gt;&lt;p&gt;Lorem ipsum dolor sit amet, consectetur adipisicing elit, sed do eiusmod tempor incididunt ut labore et dolore magna aliqua.&lt;/p&gt;" style="text;html=1;whiteSpace=wrap;overflow=hidden;rounded=0;" vertex="1" parent="6g1HS2nHY0zn9TrIZg31-94">
          <mxGeometry x="271" y="30" width="240" height="220" as="geometry" />
        </mxCell>
        <mxCell id="6g1HS2nHY0zn9TrIZg31-95" value="" style="group" vertex="1" connectable="0" parent="1">
          <mxGeometry x="40" y="1160" width="520" height="280" as="geometry" />
        </mxCell>
        <mxCell id="6g1HS2nHY0zn9TrIZg31-84" value="" style="rounded=0;whiteSpace=wrap;html=1;fillColor=#161C1D;" vertex="1" parent="6g1HS2nHY0zn9TrIZg31-95">
          <mxGeometry width="520" height="280" as="geometry" />
        </mxCell>
        <mxCell id="6g1HS2nHY0zn9TrIZg31-44" value="" style="whiteSpace=wrap;html=1;aspect=fixed;fillColor=#100F1D;" vertex="1" parent="6g1HS2nHY0zn9TrIZg31-95">
          <mxGeometry x="20" y="30" width="220" height="220" as="geometry" />
        </mxCell>
        <mxCell id="6g1HS2nHY0zn9TrIZg31-46" value="&lt;h1 style=&quot;margin-top: 0px;&quot;&gt;Heading&lt;/h1&gt;&lt;p&gt;Lorem ipsum dolor sit amet, consectetur adipisicing elit, sed do eiusmod tempor incididunt ut labore et dolore magna aliqua.&lt;/p&gt;" style="text;html=1;whiteSpace=wrap;overflow=hidden;rounded=0;" vertex="1" parent="6g1HS2nHY0zn9TrIZg31-95">
          <mxGeometry x="260" y="30" width="240" height="220" as="geometry" />
        </mxCell>
        <mxCell id="1AmKGpX6enkeID-J4dnZ-2" value="" style="rounded=0;whiteSpace=wrap;html=1;fontColor=#E6D0DE;fillColor=#E6D0DE;" vertex="1" parent="1">
          <mxGeometry x="10" y="20" width="1180" height="170" as="geometry" />
        </mxCell>
        <mxCell id="1AmKGpX6enkeID-J4dnZ-3" value="" style="verticalLabelPosition=bottom;shadow=0;dashed=0;align=center;html=1;verticalAlign=top;strokeWidth=1;shape=mxgraph.mockup.graphics.simpleIcon;strokeColor=#999999;" vertex="1" parent="1">
          <mxGeometry x="32" y="30" width="150" height="150" as="geometry" />
        </mxCell>
        <mxCell id="1AmKGpX6enkeID-J4dnZ-4" value="" style="strokeWidth=1;shadow=0;dashed=0;align=center;html=1;shape=mxgraph.mockup.forms.rrect;rSize=0;strokeColor=none;fillColor=#000066;" vertex="1" parent="1">
          <mxGeometry x="320" y="80" width="658" height="40" as="geometry" />
        </mxCell>
        <mxCell id="1AmKGpX6enkeID-J4dnZ-5" value="Home" style="strokeColor=inherit;fillColor=inherit;gradientColor=inherit;strokeWidth=1;shadow=0;dashed=0;align=center;html=1;shape=mxgraph.mockup.forms.rrect;rSize=0;fontSize=17;fontColor=#FFFFFF;whiteSpace=wrap;" vertex="1" parent="1AmKGpX6enkeID-J4dnZ-4">
          <mxGeometry width="109.66666666666667" height="40" as="geometry" />
        </mxCell>
        <mxCell id="1AmKGpX6enkeID-J4dnZ-6" value="About Us" style="strokeColor=inherit;fillColor=inherit;gradientColor=inherit;strokeWidth=1;shadow=0;dashed=0;align=center;html=1;shape=mxgraph.mockup.forms.rrect;rSize=0;fontSize=17;fontColor=#FFFFFF;whiteSpace=wrap;" vertex="1" parent="1AmKGpX6enkeID-J4dnZ-4">
          <mxGeometry x="174" width="109.66666666666667" height="40" as="geometry" />
        </mxCell>
        <mxCell id="1AmKGpX6enkeID-J4dnZ-7" value="Trips" style="strokeWidth=1;shadow=0;dashed=0;align=center;html=1;shape=mxgraph.mockup.forms.rrect;rSize=0;fontSize=17;whiteSpace=wrap;fillColor=#f5f5f5;strokeColor=#666666;fontColor=#01011D;" vertex="1" parent="1AmKGpX6enkeID-J4dnZ-4">
          <mxGeometry x="349" width="109.66666666666667" height="40" as="geometry" />
        </mxCell>
        <mxCell id="1AmKGpX6enkeID-J4dnZ-8" value="Contact Us" style="strokeColor=inherit;fillColor=inherit;gradientColor=inherit;strokeWidth=1;shadow=0;dashed=0;align=center;html=1;shape=mxgraph.mockup.forms.rrect;rSize=0;fontSize=17;fontColor=#FFFFFF;whiteSpace=wrap;" vertex="1" parent="1AmKGpX6enkeID-J4dnZ-4">
          <mxGeometry x="498.12449799196787" width="159.87550200803213" height="40" as="geometry" />
        </mxCell>
      </root>
    </mxGraphModel>
  </diagram>
  <diagram id="MZZfHzM7bWuJcOx39Ru1" name="about-us">
    <mxGraphModel dx="1587" dy="1436" grid="1" gridSize="10" guides="1" tooltips="1" connect="1" arrows="1" fold="1" page="1" pageScale="1" pageWidth="1200" pageHeight="1700" math="0" shadow="0">
      <root>
        <mxCell id="0" />
        <mxCell id="1" parent="0" />
        <mxCell id="L58J6SXqC77AY-QWJjsP-1" value="" style="group" vertex="1" connectable="0" parent="1">
          <mxGeometry x="10" y="20" width="1180" height="170" as="geometry" />
        </mxCell>
        <mxCell id="L58J6SXqC77AY-QWJjsP-2" value="" style="rounded=0;whiteSpace=wrap;html=1;fontColor=#E6D0DE;fillColor=#E6D0DE;" vertex="1" parent="L58J6SXqC77AY-QWJjsP-1">
          <mxGeometry width="1180" height="170" as="geometry" />
        </mxCell>
        <mxCell id="L58J6SXqC77AY-QWJjsP-3" value="" style="verticalLabelPosition=bottom;shadow=0;dashed=0;align=center;html=1;verticalAlign=top;strokeWidth=1;shape=mxgraph.mockup.graphics.simpleIcon;strokeColor=#999999;" vertex="1" parent="L58J6SXqC77AY-QWJjsP-1">
          <mxGeometry x="22" y="10" width="150" height="150" as="geometry" />
        </mxCell>
        <mxCell id="L58J6SXqC77AY-QWJjsP-4" value="" style="strokeWidth=1;shadow=0;dashed=0;align=center;html=1;shape=mxgraph.mockup.forms.rrect;rSize=0;strokeColor=none;fillColor=#000066;" vertex="1" parent="L58J6SXqC77AY-QWJjsP-1">
          <mxGeometry x="310" y="60" width="658" height="40" as="geometry" />
        </mxCell>
        <mxCell id="L58J6SXqC77AY-QWJjsP-5" value="Home" style="strokeColor=inherit;fillColor=inherit;gradientColor=inherit;strokeWidth=1;shadow=0;dashed=0;align=center;html=1;shape=mxgraph.mockup.forms.rrect;rSize=0;fontSize=17;fontColor=#FFFFFF;whiteSpace=wrap;" vertex="1" parent="L58J6SXqC77AY-QWJjsP-4">
          <mxGeometry width="109.66666666666667" height="40" as="geometry" />
        </mxCell>
        <mxCell id="L58J6SXqC77AY-QWJjsP-6" value="About Us" style="strokeColor=inherit;fillColor=inherit;gradientColor=inherit;strokeWidth=1;shadow=0;dashed=0;align=center;html=1;shape=mxgraph.mockup.forms.rrect;rSize=0;fontSize=17;fontColor=#FFFFFF;whiteSpace=wrap;" vertex="1" parent="L58J6SXqC77AY-QWJjsP-4">
          <mxGeometry x="174" width="109.66666666666667" height="40" as="geometry" />
        </mxCell>
        <mxCell id="L58J6SXqC77AY-QWJjsP-7" value="Trips" style="strokeWidth=1;shadow=0;dashed=0;align=center;html=1;shape=mxgraph.mockup.forms.rrect;rSize=0;fontSize=17;whiteSpace=wrap;fillColor=#f5f5f5;strokeColor=#666666;fontColor=#01011D;" vertex="1" parent="L58J6SXqC77AY-QWJjsP-4">
          <mxGeometry x="349" width="109.66666666666667" height="40" as="geometry" />
        </mxCell>
        <mxCell id="L58J6SXqC77AY-QWJjsP-8" value="Contact Us" style="strokeColor=inherit;fillColor=inherit;gradientColor=inherit;strokeWidth=1;shadow=0;dashed=0;align=center;html=1;shape=mxgraph.mockup.forms.rrect;rSize=0;fontSize=17;fontColor=#FFFFFF;whiteSpace=wrap;" vertex="1" parent="L58J6SXqC77AY-QWJjsP-4">
          <mxGeometry x="498.12449799196787" width="159.87550200803213" height="40" as="geometry" />
        </mxCell>
        <mxCell id="g44D9-a35r65hFZZrDGd-1" value="" style="group" vertex="1" connectable="0" parent="1">
          <mxGeometry x="10" y="1630" width="1180" height="60" as="geometry" />
        </mxCell>
        <mxCell id="g44D9-a35r65hFZZrDGd-2" value="" style="rounded=0;whiteSpace=wrap;html=1;fillColor=#3e3e3e;" vertex="1" parent="g44D9-a35r65hFZZrDGd-1">
          <mxGeometry width="1180" height="60" as="geometry" />
        </mxCell>
        <mxCell id="g44D9-a35r65hFZZrDGd-3" value="Footer content" style="text;html=1;align=center;verticalAlign=middle;whiteSpace=wrap;rounded=0;fontColor=#FFFFFF;" vertex="1" parent="g44D9-a35r65hFZZrDGd-1">
          <mxGeometry x="40.689655172413794" y="15" width="427.24137931034477" height="30" as="geometry" />
        </mxCell>
        <mxCell id="g44D9-a35r65hFZZrDGd-4" value="" style="verticalLabelPosition=bottom;shadow=0;dashed=0;align=center;html=1;verticalAlign=top;strokeWidth=1;shape=mxgraph.mockup.graphics.simpleIcon;strokeColor=#999999;fillColor=#FFFFCC;" vertex="1" parent="g44D9-a35r65hFZZrDGd-1">
          <mxGeometry x="1092.5172413793102" y="5" width="50.86206896551724" height="50" as="geometry" />
        </mxCell>
        <mxCell id="g44D9-a35r65hFZZrDGd-5" value="" style="verticalLabelPosition=bottom;shadow=0;dashed=0;align=center;html=1;verticalAlign=top;strokeWidth=1;shape=mxgraph.mockup.graphics.simpleIcon;strokeColor=#999999;fillColor=#FFFFCC;" vertex="1" parent="g44D9-a35r65hFZZrDGd-1">
          <mxGeometry x="1007.0689655172413" y="5" width="50.86206896551724" height="50" as="geometry" />
        </mxCell>
        <mxCell id="g44D9-a35r65hFZZrDGd-6" value="" style="verticalLabelPosition=bottom;shadow=0;dashed=0;align=center;html=1;verticalAlign=top;strokeWidth=1;shape=mxgraph.mockup.graphics.simpleIcon;strokeColor=#999999;fillColor=#FFFFCC;" vertex="1" parent="g44D9-a35r65hFZZrDGd-1">
          <mxGeometry x="915.5172413793102" y="5" width="50.86206896551724" height="50" as="geometry" />
        </mxCell>
        <mxCell id="g44D9-a35r65hFZZrDGd-7" value="Wireframe Link" style="text;html=1;align=center;verticalAlign=middle;whiteSpace=wrap;rounded=0;fontColor=#FFFFFF;" vertex="1" parent="g44D9-a35r65hFZZrDGd-1">
          <mxGeometry x="579.8275862068965" y="15" width="152.58620689655172" height="30" as="geometry" />
        </mxCell>
        <mxCell id="3hGshKgbbCEjq9xorAk7-1" value="" style="verticalLabelPosition=bottom;shadow=0;dashed=0;align=center;html=1;verticalAlign=top;strokeWidth=1;shape=mxgraph.mockup.graphics.simpleIcon;strokeColor=#999999;" vertex="1" parent="1">
          <mxGeometry x="10" y="200" width="1180" height="530" as="geometry" />
        </mxCell>
        <mxCell id="KhUQT5BAuSgurNsPgxby-1" value="Whitewater Adventures About Us" style="text;html=1;align=center;verticalAlign=middle;whiteSpace=wrap;rounded=0;fontSize=36;" vertex="1" parent="1">
          <mxGeometry x="315" y="230" width="570" height="50" as="geometry" />
        </mxCell>
        <mxCell id="KhUQT5BAuSgurNsPgxby-2" value="" style="rounded=0;whiteSpace=wrap;html=1;fillColor=#D5E8D4;gradientColor=none;strokeColor=#666666;fontColor=#161C1D;" vertex="1" parent="1">
          <mxGeometry x="80" y="320" width="1050" height="200" as="geometry" />
        </mxCell>
        <mxCell id="KhUQT5BAuSgurNsPgxby-3" value="" style="verticalLabelPosition=bottom;shadow=0;dashed=0;align=center;html=1;verticalAlign=top;strokeWidth=1;shape=mxgraph.mockup.graphics.simpleIcon;strokeColor=#999999;" vertex="1" parent="1">
          <mxGeometry x="950" y="340" width="160" height="160" as="geometry" />
        </mxCell>
        <mxCell id="KhUQT5BAuSgurNsPgxby-4" value="&lt;span style=&quot;font-family: &amp;quot;Mercury SSm A&amp;quot;, &amp;quot;Mercury SSm B&amp;quot;, Georgia, Times, &amp;quot;Times New Roman&amp;quot;, &amp;quot;Microsoft YaHei New&amp;quot;, &amp;quot;Microsoft Yahei&amp;quot;, 微软雅黑, 宋体, SimSun, STXihei, 华文细黑, serif; font-size: 16px;&quot;&gt;&lt;font&gt;Lorem ipsum dolor sit amet, consectetur adipiscing elit, sed do eiusmod tempor incididunt ut labore et dolore magna aliqua. Ut enim ad minim veniam, quis nostrud exercitation ullamco laboris nisi ut aliquip ex ea commodo consequat. Duis aute irure dolor in reprehenderit in voluptate velit esse cillum dolore eu fugiat nulla pariatur. Excepteur sint occaecat cupidatat non proident, sunt in culpa qui officia deserunt mollit anim id est laborum.&lt;/font&gt;&lt;/span&gt;" style="text;html=1;align=left;verticalAlign=middle;whiteSpace=wrap;rounded=0;fontColor=#100F1D;" vertex="1" parent="1">
          <mxGeometry x="160" y="360" width="760" height="120" as="geometry" />
        </mxCell>
        <mxCell id="KhUQT5BAuSgurNsPgxby-6" value="" style="rounded=0;whiteSpace=wrap;html=1;" vertex="1" parent="1">
          <mxGeometry x="10" y="790" width="1180" height="270" as="geometry" />
        </mxCell>
        <mxCell id="KhUQT5BAuSgurNsPgxby-7" value="&lt;font style=&quot;font-size: 24px;&quot;&gt;History&lt;/font&gt;" style="text;html=1;align=center;verticalAlign=middle;whiteSpace=wrap;rounded=0;fontSize=24;" vertex="1" parent="1">
          <mxGeometry x="540" y="810" width="120" height="30" as="geometry" />
        </mxCell>
        <mxCell id="KhUQT5BAuSgurNsPgxby-8" value="" style="verticalLabelPosition=bottom;shadow=0;dashed=0;align=center;html=1;verticalAlign=top;strokeWidth=1;shape=mxgraph.mockup.graphics.simpleIcon;strokeColor=#999999;" vertex="1" parent="1">
          <mxGeometry x="80" y="860" width="250" height="170" as="geometry" />
        </mxCell>
        <mxCell id="KhUQT5BAuSgurNsPgxby-9" value="" style="verticalLabelPosition=bottom;shadow=0;dashed=0;align=center;html=1;verticalAlign=top;strokeWidth=1;shape=mxgraph.mockup.graphics.simpleIcon;strokeColor=#999999;" vertex="1" parent="1">
          <mxGeometry x="880" y="860" width="250" height="170" as="geometry" />
        </mxCell>
        <mxCell id="KhUQT5BAuSgurNsPgxby-10" value="&lt;p style=&quot;margin-top: 0px;&quot;&gt;&lt;span style=&quot;font-family: &amp;quot;Mercury SSm A&amp;quot;, &amp;quot;Mercury SSm B&amp;quot;, Georgia, Times, &amp;quot;Times New Roman&amp;quot;, &amp;quot;Microsoft YaHei New&amp;quot;, &amp;quot;Microsoft Yahei&amp;quot;, 微软雅黑, 宋体, SimSun, STXihei, 华文细黑, serif; font-size: 16px; font-weight: 400;&quot;&gt;Lorem ipsum dolor sit amet, consectetur adipiscing elit, sed do eiusmod tempor incididunt ut labore et dolore magna aliqua. Ut enim ad minim veniam, quis nostrud exercitation ullamco laboris nisi ut aliquip ex ea commodo consequat. Duis aute irure dolor in reprehenderit in voluptate velit esse cillum dolore eu fugiat nulla pariatur. Excepteur sint occaecat cupidatat non proident, sunt in culpa qui officia deserunt mollit anim id est laborum.&lt;/span&gt;&lt;/p&gt;" style="text;html=1;whiteSpace=wrap;overflow=hidden;rounded=0;fontColor=#FFFFFF;" vertex="1" parent="1">
          <mxGeometry x="380" y="860" width="460" height="170" as="geometry" />
        </mxCell>
        <mxCell id="KhUQT5BAuSgurNsPgxby-11" value="" style="rounded=0;whiteSpace=wrap;html=1;" vertex="1" parent="1">
          <mxGeometry x="10" y="1160" width="1180" height="330" as="geometry" />
        </mxCell>
        <mxCell id="KhUQT5BAuSgurNsPgxby-22" value="" style="group" vertex="1" connectable="0" parent="1">
          <mxGeometry x="20" y="1230" width="1160" height="233" as="geometry" />
        </mxCell>
        <mxCell id="KhUQT5BAuSgurNsPgxby-12" value="" style="verticalLabelPosition=bottom;shadow=0;dashed=0;align=center;html=1;verticalAlign=top;strokeWidth=1;shape=mxgraph.mockup.graphics.simpleIcon;strokeColor=#999999;" vertex="1" parent="KhUQT5BAuSgurNsPgxby-22">
          <mxGeometry x="480" width="200" height="200" as="geometry" />
        </mxCell>
        <mxCell id="KhUQT5BAuSgurNsPgxby-13" value="" style="verticalLabelPosition=bottom;shadow=0;dashed=0;align=center;html=1;verticalAlign=top;strokeWidth=1;shape=mxgraph.mockup.graphics.simpleIcon;strokeColor=#999999;" vertex="1" parent="KhUQT5BAuSgurNsPgxby-22">
          <mxGeometry x="720" width="200" height="200" as="geometry" />
        </mxCell>
        <mxCell id="KhUQT5BAuSgurNsPgxby-14" value="" style="verticalLabelPosition=bottom;shadow=0;dashed=0;align=center;html=1;verticalAlign=top;strokeWidth=1;shape=mxgraph.mockup.graphics.simpleIcon;strokeColor=#999999;" vertex="1" parent="KhUQT5BAuSgurNsPgxby-22">
          <mxGeometry x="960" width="200" height="200" as="geometry" />
        </mxCell>
        <mxCell id="KhUQT5BAuSgurNsPgxby-15" value="" style="verticalLabelPosition=bottom;shadow=0;dashed=0;align=center;html=1;verticalAlign=top;strokeWidth=1;shape=mxgraph.mockup.graphics.simpleIcon;strokeColor=#999999;" vertex="1" parent="KhUQT5BAuSgurNsPgxby-22">
          <mxGeometry x="240" width="200" height="200" as="geometry" />
        </mxCell>
        <mxCell id="KhUQT5BAuSgurNsPgxby-16" value="" style="verticalLabelPosition=bottom;shadow=0;dashed=0;align=center;html=1;verticalAlign=top;strokeWidth=1;shape=mxgraph.mockup.graphics.simpleIcon;strokeColor=#999999;" vertex="1" parent="KhUQT5BAuSgurNsPgxby-22">
          <mxGeometry width="200" height="200" as="geometry" />
        </mxCell>
        <mxCell id="KhUQT5BAuSgurNsPgxby-17" value="Caption" style="text;html=1;align=center;verticalAlign=middle;whiteSpace=wrap;rounded=0;fillColor=#7a7382;" vertex="1" parent="KhUQT5BAuSgurNsPgxby-22">
          <mxGeometry y="203" width="200" height="30" as="geometry" />
        </mxCell>
        <mxCell id="KhUQT5BAuSgurNsPgxby-18" value="Caption" style="text;html=1;align=center;verticalAlign=middle;whiteSpace=wrap;rounded=0;fillColor=#7a7382;" vertex="1" parent="KhUQT5BAuSgurNsPgxby-22">
          <mxGeometry x="240" y="203" width="200" height="30" as="geometry" />
        </mxCell>
        <mxCell id="KhUQT5BAuSgurNsPgxby-19" value="Caption" style="text;html=1;align=center;verticalAlign=middle;whiteSpace=wrap;rounded=0;fillColor=#7a7382;" vertex="1" parent="KhUQT5BAuSgurNsPgxby-22">
          <mxGeometry x="480" y="203" width="200" height="30" as="geometry" />
        </mxCell>
        <mxCell id="KhUQT5BAuSgurNsPgxby-20" value="Caption" style="text;html=1;align=center;verticalAlign=middle;whiteSpace=wrap;rounded=0;fillColor=#7a7382;" vertex="1" parent="KhUQT5BAuSgurNsPgxby-22">
          <mxGeometry x="720" y="203" width="200" height="30" as="geometry" />
        </mxCell>
        <mxCell id="KhUQT5BAuSgurNsPgxby-21" value="Caption" style="text;html=1;align=center;verticalAlign=middle;whiteSpace=wrap;rounded=0;fillColor=#7a7382;" vertex="1" parent="KhUQT5BAuSgurNsPgxby-22">
          <mxGeometry x="960" y="203" width="200" height="30" as="geometry" />
        </mxCell>
        <mxCell id="KhUQT5BAuSgurNsPgxby-23" value="Adventure Awates You" style="text;html=1;align=center;verticalAlign=middle;whiteSpace=wrap;rounded=0;fontSize=24;" vertex="1" parent="1">
          <mxGeometry x="445" y="1180" width="310" height="30" as="geometry" />
        </mxCell>
      </root>
    </mxGraphModel>
  </diagram>
  <diagram id="4FM8h6p2rJ17W8npO2ES" name="contact-us">
    <mxGraphModel dx="1587" dy="1402" grid="1" gridSize="10" guides="1" tooltips="1" connect="1" arrows="1" fold="1" page="1" pageScale="1" pageWidth="1200" pageHeight="1700" math="0" shadow="0">
      <root>
        <mxCell id="0" />
        <mxCell id="1" parent="0" />
        <mxCell id="ZSlgHMbEsqlhPU86m-yZ-1" value="" style="group" vertex="1" connectable="0" parent="1">
          <mxGeometry x="10" y="20" width="1180" height="170" as="geometry" />
        </mxCell>
        <mxCell id="ZSlgHMbEsqlhPU86m-yZ-2" value="" style="rounded=0;whiteSpace=wrap;html=1;fontColor=#E6D0DE;fillColor=#E6D0DE;" vertex="1" parent="ZSlgHMbEsqlhPU86m-yZ-1">
          <mxGeometry width="1180" height="170" as="geometry" />
        </mxCell>
        <mxCell id="ZSlgHMbEsqlhPU86m-yZ-3" value="" style="verticalLabelPosition=bottom;shadow=0;dashed=0;align=center;html=1;verticalAlign=top;strokeWidth=1;shape=mxgraph.mockup.graphics.simpleIcon;strokeColor=#999999;" vertex="1" parent="ZSlgHMbEsqlhPU86m-yZ-1">
          <mxGeometry x="22" y="10" width="150" height="150" as="geometry" />
        </mxCell>
        <mxCell id="ZSlgHMbEsqlhPU86m-yZ-4" value="" style="strokeWidth=1;shadow=0;dashed=0;align=center;html=1;shape=mxgraph.mockup.forms.rrect;rSize=0;strokeColor=none;fillColor=#000066;" vertex="1" parent="ZSlgHMbEsqlhPU86m-yZ-1">
          <mxGeometry x="310" y="60" width="658" height="40" as="geometry" />
        </mxCell>
        <mxCell id="ZSlgHMbEsqlhPU86m-yZ-5" value="Home" style="strokeColor=inherit;fillColor=inherit;gradientColor=inherit;strokeWidth=1;shadow=0;dashed=0;align=center;html=1;shape=mxgraph.mockup.forms.rrect;rSize=0;fontSize=17;fontColor=#FFFFFF;whiteSpace=wrap;" vertex="1" parent="ZSlgHMbEsqlhPU86m-yZ-4">
          <mxGeometry width="109.66666666666667" height="40" as="geometry" />
        </mxCell>
        <mxCell id="ZSlgHMbEsqlhPU86m-yZ-6" value="About Us" style="strokeColor=inherit;fillColor=inherit;gradientColor=inherit;strokeWidth=1;shadow=0;dashed=0;align=center;html=1;shape=mxgraph.mockup.forms.rrect;rSize=0;fontSize=17;fontColor=#FFFFFF;whiteSpace=wrap;" vertex="1" parent="ZSlgHMbEsqlhPU86m-yZ-4">
          <mxGeometry x="174" width="109.66666666666667" height="40" as="geometry" />
        </mxCell>
        <mxCell id="ZSlgHMbEsqlhPU86m-yZ-7" value="Trips" style="strokeWidth=1;shadow=0;dashed=0;align=center;html=1;shape=mxgraph.mockup.forms.rrect;rSize=0;fontSize=17;whiteSpace=wrap;fillColor=#f5f5f5;strokeColor=#666666;fontColor=#01011D;" vertex="1" parent="ZSlgHMbEsqlhPU86m-yZ-4">
          <mxGeometry x="349" width="109.66666666666667" height="40" as="geometry" />
        </mxCell>
        <mxCell id="ZSlgHMbEsqlhPU86m-yZ-8" value="Contact Us" style="strokeColor=inherit;fillColor=inherit;gradientColor=inherit;strokeWidth=1;shadow=0;dashed=0;align=center;html=1;shape=mxgraph.mockup.forms.rrect;rSize=0;fontSize=17;fontColor=#FFFFFF;whiteSpace=wrap;" vertex="1" parent="ZSlgHMbEsqlhPU86m-yZ-4">
          <mxGeometry x="498.12449799196787" width="159.87550200803213" height="40" as="geometry" />
        </mxCell>
        <mxCell id="3D_eNkW0uAECeTOj_1IA-1" value="" style="group" vertex="1" connectable="0" parent="1">
          <mxGeometry x="10" y="1630" width="1180" height="60" as="geometry" />
        </mxCell>
        <mxCell id="3D_eNkW0uAECeTOj_1IA-2" value="" style="rounded=0;whiteSpace=wrap;html=1;fillColor=#3e3e3e;" vertex="1" parent="3D_eNkW0uAECeTOj_1IA-1">
          <mxGeometry width="1180" height="60" as="geometry" />
        </mxCell>
        <mxCell id="3D_eNkW0uAECeTOj_1IA-3" value="Footer content" style="text;html=1;align=center;verticalAlign=middle;whiteSpace=wrap;rounded=0;fontColor=#FFFFFF;" vertex="1" parent="3D_eNkW0uAECeTOj_1IA-1">
          <mxGeometry x="40.689655172413794" y="15" width="427.24137931034477" height="30" as="geometry" />
        </mxCell>
        <mxCell id="3D_eNkW0uAECeTOj_1IA-4" value="" style="verticalLabelPosition=bottom;shadow=0;dashed=0;align=center;html=1;verticalAlign=top;strokeWidth=1;shape=mxgraph.mockup.graphics.simpleIcon;strokeColor=#999999;fillColor=#FFFFCC;" vertex="1" parent="3D_eNkW0uAECeTOj_1IA-1">
          <mxGeometry x="1092.5172413793102" y="5" width="50.86206896551724" height="50" as="geometry" />
        </mxCell>
        <mxCell id="3D_eNkW0uAECeTOj_1IA-5" value="" style="verticalLabelPosition=bottom;shadow=0;dashed=0;align=center;html=1;verticalAlign=top;strokeWidth=1;shape=mxgraph.mockup.graphics.simpleIcon;strokeColor=#999999;fillColor=#FFFFCC;" vertex="1" parent="3D_eNkW0uAECeTOj_1IA-1">
          <mxGeometry x="1007.0689655172413" y="5" width="50.86206896551724" height="50" as="geometry" />
        </mxCell>
        <mxCell id="3D_eNkW0uAECeTOj_1IA-6" value="" style="verticalLabelPosition=bottom;shadow=0;dashed=0;align=center;html=1;verticalAlign=top;strokeWidth=1;shape=mxgraph.mockup.graphics.simpleIcon;strokeColor=#999999;fillColor=#FFFFCC;" vertex="1" parent="3D_eNkW0uAECeTOj_1IA-1">
          <mxGeometry x="915.5172413793102" y="5" width="50.86206896551724" height="50" as="geometry" />
        </mxCell>
        <mxCell id="3D_eNkW0uAECeTOj_1IA-7" value="Wireframe Link" style="text;html=1;align=center;verticalAlign=middle;whiteSpace=wrap;rounded=0;fontColor=#FFFFFF;" vertex="1" parent="3D_eNkW0uAECeTOj_1IA-1">
          <mxGeometry x="579.8275862068965" y="15" width="152.58620689655172" height="30" as="geometry" />
        </mxCell>
        <mxCell id="bAls_M37_ERf_XXOOv4y-15" value="&lt;p style=&quot;font-size: 13px;&quot;&gt;Address Line 1&lt;br&gt;&lt;span style=&quot;background-color: initial;&quot;&gt;Address Line 2&lt;br&gt;&lt;/span&gt;&lt;span style=&quot;background-color: initial;&quot;&gt;City, ST&amp;nbsp; Postal Code&lt;/span&gt;&lt;/p&gt;&lt;p style=&quot;font-size: 13px;&quot;&gt;&lt;br&gt;Phone Number&lt;/p&gt;" style="text;html=1;whiteSpace=wrap;overflow=hidden;rounded=0;fillColor=#D5E8D4;fontColor=#100F1D;fontSize=13;" vertex="1" parent="1">
          <mxGeometry x="600" y="240" width="340" height="150" as="geometry" />
        </mxCell>
        <mxCell id="bAls_M37_ERf_XXOOv4y-18" value="" style="verticalLabelPosition=bottom;shadow=0;dashed=0;align=center;html=1;verticalAlign=top;strokeWidth=1;shape=mxgraph.mockup.misc.map;" vertex="1" parent="1">
          <mxGeometry x="600" y="410" width="550" height="440" as="geometry" />
        </mxCell>
        <mxCell id="bAls_M37_ERf_XXOOv4y-19" value="" style="verticalLabelPosition=bottom;shadow=0;dashed=0;align=center;html=1;verticalAlign=top;strokeWidth=1;shape=mxgraph.mockup.graphics.simpleIcon;strokeColor=#999999;" vertex="1" parent="1">
          <mxGeometry x="450" y="1160" width="300" height="300" as="geometry" />
        </mxCell>
        <mxCell id="bAls_M37_ERf_XXOOv4y-20" value="" style="verticalLabelPosition=bottom;shadow=0;dashed=0;align=center;html=1;verticalAlign=top;strokeWidth=1;shape=mxgraph.mockup.graphics.simpleIcon;strokeColor=#999999;" vertex="1" parent="1">
          <mxGeometry x="860" y="1160" width="300" height="300" as="geometry" />
        </mxCell>
        <mxCell id="bAls_M37_ERf_XXOOv4y-21" value="" style="verticalLabelPosition=bottom;shadow=0;dashed=0;align=center;html=1;verticalAlign=top;strokeWidth=1;shape=mxgraph.mockup.graphics.simpleIcon;strokeColor=#999999;" vertex="1" parent="1">
          <mxGeometry x="40" y="1160" width="300" height="300" as="geometry" />
        </mxCell>
        <mxCell id="bAls_M37_ERf_XXOOv4y-22" value="Employee Name &amp;amp; Title" style="text;html=1;align=center;verticalAlign=middle;whiteSpace=wrap;rounded=0;" vertex="1" parent="1">
          <mxGeometry x="40" y="1470" width="300" height="30" as="geometry" />
        </mxCell>
        <mxCell id="bAls_M37_ERf_XXOOv4y-23" value="Employee Name &amp;amp; Title" style="text;html=1;align=center;verticalAlign=middle;whiteSpace=wrap;rounded=0;" vertex="1" parent="1">
          <mxGeometry x="450" y="1470" width="300" height="30" as="geometry" />
        </mxCell>
        <mxCell id="bAls_M37_ERf_XXOOv4y-24" value="Employee Name &amp;amp; Title" style="text;html=1;align=center;verticalAlign=middle;whiteSpace=wrap;rounded=0;" vertex="1" parent="1">
          <mxGeometry x="860" y="1470" width="300" height="30" as="geometry" />
        </mxCell>
        <mxCell id="bAls_M37_ERf_XXOOv4y-25" value="" style="line;strokeWidth=19;html=1;gradientColor=none;fillColor=none;strokeColor=#000073;" vertex="1" parent="1">
          <mxGeometry x="20" y="980" width="1150" height="30" as="geometry" />
        </mxCell>
        <mxCell id="Z81uHouR7eepD4xG48Tc-1" value="" style="group" vertex="1" connectable="0" parent="1">
          <mxGeometry x="20" y="240" width="440" height="600" as="geometry" />
        </mxCell>
        <mxCell id="bAls_M37_ERf_XXOOv4y-17" value="" style="rounded=0;whiteSpace=wrap;html=1;fillColor=#42693F;" vertex="1" parent="Z81uHouR7eepD4xG48Tc-1">
          <mxGeometry width="440" height="600" as="geometry" />
        </mxCell>
        <mxCell id="bAls_M37_ERf_XXOOv4y-1" value="Name" style="strokeWidth=1;shadow=0;dashed=0;align=left;html=1;shape=mxgraph.mockup.forms.anchor;align=right;spacingRight=2;fontColor=#FFFFFF;fontSize=18;" vertex="1" parent="Z81uHouR7eepD4xG48Tc-1">
          <mxGeometry x="20" y="30" width="50" height="18" as="geometry" />
        </mxCell>
        <mxCell id="bAls_M37_ERf_XXOOv4y-2" value="john@jgraph.com" style="strokeWidth=1;shadow=0;dashed=0;align=center;html=1;shape=mxgraph.mockup.forms.rrect;fillColor=#ffffff;rSize=0;fontColor=#666666;align=left;spacingLeft=3;strokeColor=#999999;fontSize=17;" vertex="1" parent="Z81uHouR7eepD4xG48Tc-1">
          <mxGeometry x="20" y="60" width="350" height="30" as="geometry" />
        </mxCell>
        <mxCell id="bAls_M37_ERf_XXOOv4y-3" value="eMail" style="strokeWidth=1;shadow=0;dashed=0;align=left;html=1;shape=mxgraph.mockup.forms.anchor;align=right;spacingRight=2;fontColor=#FFFFFF;fontSize=18;" vertex="1" parent="Z81uHouR7eepD4xG48Tc-1">
          <mxGeometry x="20" y="107" width="50" height="18" as="geometry" />
        </mxCell>
        <mxCell id="bAls_M37_ERf_XXOOv4y-4" value="email@domain.tld" style="strokeWidth=1;shadow=0;dashed=0;align=center;html=1;shape=mxgraph.mockup.forms.rrect;fillColor=#ffffff;rSize=0;fontColor=#666666;align=left;spacingLeft=3;strokeColor=#999999;fontSize=17;" vertex="1" parent="Z81uHouR7eepD4xG48Tc-1">
          <mxGeometry x="20" y="132" width="350" height="28" as="geometry" />
        </mxCell>
        <mxCell id="bAls_M37_ERf_XXOOv4y-13" value="" style="edgeStyle=orthogonalEdgeStyle;rounded=0;orthogonalLoop=1;jettySize=auto;html=1;" edge="1" parent="Z81uHouR7eepD4xG48Tc-1" source="bAls_M37_ERf_XXOOv4y-5" target="bAls_M37_ERf_XXOOv4y-12">
          <mxGeometry relative="1" as="geometry" />
        </mxCell>
        <mxCell id="bAls_M37_ERf_XXOOv4y-5" value="Reason for contacting" style="strokeWidth=1;shadow=0;dashed=0;align=left;html=1;shape=mxgraph.mockup.forms.anchor;align=right;spacingRight=2;fontColor=#FFFFFF;fontSize=18;" vertex="1" parent="Z81uHouR7eepD4xG48Tc-1">
          <mxGeometry x="20" y="200" width="180" height="18" as="geometry" />
        </mxCell>
        <mxCell id="bAls_M37_ERf_XXOOv4y-11" value="Lorem ipsum dolor sit amet, consectetur adipisicing elit, sed do eiusmod tempor incididunt ut labore et dolore magna aliqua. Ut enim ad minim veniam, quis nostrud exercitation ullamco laboris nisi ut aliquip ex ea commodo consequat. Duis aute irure dolor in reprehenderit in voluptate velit esse cillum dolore eu fugiat nulla pariatur. Excepteur sint occaecat cupidatat non proident, sunt in culpa qui officia deserunt mollit anim id est laborum." style="strokeWidth=1;shadow=0;dashed=0;align=center;html=1;shape=mxgraph.mockup.forms.rrect;fillColor=#ffffff;rSize=0;fontColor=#666666;align=left;spacingLeft=3;strokeColor=#999999;verticalAlign=top;whiteSpace=wrap;" vertex="1" parent="Z81uHouR7eepD4xG48Tc-1">
          <mxGeometry x="20" y="330" width="400" height="160" as="geometry" />
        </mxCell>
        <mxCell id="bAls_M37_ERf_XXOOv4y-12" value="Option 1" style="strokeWidth=1;shadow=0;dashed=0;align=center;html=1;shape=mxgraph.mockup.forms.comboBox;strokeColor=#999999;fillColor=#ddeeff;align=left;fillColor2=#aaddff;mainText=;fontColor=#666666;fontSize=17;spacingLeft=3;" vertex="1" parent="Z81uHouR7eepD4xG48Tc-1">
          <mxGeometry x="20" y="230" width="360" height="30" as="geometry" />
        </mxCell>
        <mxCell id="bAls_M37_ERf_XXOOv4y-14" value="Comments" style="strokeWidth=1;shadow=0;dashed=0;align=left;html=1;shape=mxgraph.mockup.forms.anchor;align=right;spacingRight=2;fontColor=#FFFFFF;fontSize=18;" vertex="1" parent="Z81uHouR7eepD4xG48Tc-1">
          <mxGeometry x="20" y="300" width="100" height="18" as="geometry" />
        </mxCell>
        <mxCell id="bAls_M37_ERf_XXOOv4y-16" value="Send Mesage" style="strokeWidth=1;shadow=0;dashed=0;align=center;html=1;shape=mxgraph.mockup.buttons.button;strokeColor=#666666;fontColor=#ffffff;mainText=;buttonStyle=round;fontSize=17;fontStyle=1;fillColor=#008cff;whiteSpace=wrap;" vertex="1" parent="Z81uHouR7eepD4xG48Tc-1">
          <mxGeometry x="20" y="530" width="150" height="50" as="geometry" />
        </mxCell>
      </root>
    </mxGraphModel>
  </diagram>
</mxfile>
